# xmcd
#
# Track frame offsets: 
#        150
#        22911
#        50340
#        64106
#        84397
#        112115
#        131049
#        155252
#        181610
#        195572
#        217836
#        238354
#        261562
#
# Disc length: 3733 seconds
#
# Revision: 0
# Processed by: cddbd v1.5.2PL0 Copyright (c) Steve Scherf et al.
# Submitted via: ExactAudioCopy v1.0b4
#
DISCID=b00e930d
DTITLE=Bruce Katz Band - Homecoming
DYEAR=2014
DGENRE=Blues
TTITLE0=Homecoming
TTITLE1=King Of Decatur
TTITLE2=Santa Fe Blues
TTITLE3=No Brainer
TTITLE4=Amelia
TTITLE5=Wild About You Baby
TTITLE6=The Czar
TTITLE7=Blues Before Sunrise
TTITLE8=Time Flies
TTITLE9=The Sky's The Limit
TTITLE10=Just An Expression
TTITLE11=Won't Last Till Tuesday
TTITLE12=It's A Bad Time.
EXTD=
EXTT0=
EXTT1=
EXTT2=
EXTT3=
EXTT4=
EXTT5=
EXTT6=
EXTT7=
EXTT8=
EXTT9=
EXTT10=
EXTT11=
EXTT12=
PLAYORDER=
